# xmcd
#
# Track frame offsets:
#	150
#	13903
#	25757
#	45416
#	58847
#	74030
#	87507
#	98111
#	115441
#	128350
#	140627
#	159754
#
# Disc length: 2486 seconds
#
# Revision: 0
# Processed by: cddbd v1.5.1PL2 Copyright (c) Steve Scherf et al.
# Submitted via: dBpowerAMP V4.0
#
DISCID=a109b40c
DTITLE=Jill Watkins Band - Just One Good Man
DYEAR=2005
DGENRE=Blues
TTITLE0=Red Train
TTITLE1=Too Happy
TTITLE2=Just One Good Man
TTITLE3=Can't Treat a Woman Like That
TTITLE4=New Orleans
TTITLE5=Big Men
TTITLE6=Friday Night
TTITLE7=Leave Me Alone
TTITLE8=When I First Met You
TTITLE9=Tell the Truth
TTITLE10=Tore Down
TTITLE11=Summertime
EXTD=
EXTT0=
EXTT1=
EXTT2=
EXTT3=
EXTT4=
EXTT5=
EXTT6=
EXTT7=
EXTT8=
EXTT9=
EXTT10=
EXTT11=
PLAYORDER=
